<?xml version="1.0" standalone="no"?>
<!DOCTYPE svg PUBLIC "-//W3C//DTD SVG 20010904//EN"
 "http://www.w3.org/TR/2001/REC-SVG-20010904/DTD/svg10.dtd">
<svg version="1.0" xmlns="http://www.w3.org/2000/svg"
 width="3104.000000pt" height="3104.000000pt" viewBox="0 0 3104.000000 3104.000000"
 preserveAspectRatio="xMidYMid meet">
<metadata>
Created by potrace 1.14, written by Peter Selinger 2001-2017
</metadata>
<g transform="translate(0.000000,3104.000000) scale(0.100000,-0.100000)"
fill="#000000" stroke="none">
<path d="M0 15681 l0 -4800 68 -1 c37 -1 83 0 102 0 19 1 42 2 50 1 60 -3 122
-1 130 4 6 3 10 3 10 -2 0 -4 32 -8 70 -8 39 0 70 4 70 8 0 5 4 6 9 3 7 -5
190 -8 251 -5 8 1 40 0 70 0 30 -1 102 -2 160 -2 58 0 110 0 115 0 6 0 33 0
60 0 28 1 76 0 108 -1 31 -2 57 -1 57 2 0 3 29 3 65 0 36 -3 65 -2 65 1 0 4 8
5 18 3 26 -7 222 -10 222 -4 0 3 30 3 66 0 36 -3 67 -4 69 -2 2 2 39 4 82 3
43 0 105 -1 138 0 72 0 85 0 153 -1 29 0 57 2 62 5 6 3 10 3 10 -2 0 -4 32 -8
70 -8 39 0 70 4 70 8 0 5 4 6 9 3 7 -5 190 -8 251 -5 8 1 40 0 70 0 30 -1 102
-2 160 -2 58 0 110 0 115 0 6 0 33 0 60 0 28 1 76 0 108 -1 31 -2 57 -1 57 2
0 3 29 3 65 0 36 -3 65 -2 65 1 0 4 8 5 18 3 26 -7 222 -10 222 -4 0 3 30 3
66 0 36 -3 67 -4 69 -2 2 2 39 4 82 3 43 0 105 -1 138 0 72 0 85 0 153 -1 29
0 57 2 62 5 6 3 10 3 10 -2 0 -4 32 -8 70 -8 39 0 70 4 70 8 0 5 4 6 9 3 7 -5
190 -8 251 -5 8 1 40 0 70 0 30 -1 102 -2 160 -2 58 0 110 0 115 0 6 0 33 0
60 0 28 1 76 0 108 -1 31 -2 57 -1 57 2 0 3 29 3 65 0 36 -3 65 -2 65 1 0 4 8
5 18 3 26 -7 222 -10 222 -4 0 3 30 3 66 0 36 -3 67 -4 69 -2 2 2 39 4 82 3
43 0 105 -1 138 0 72 0 85 0 153 -1 29 0 57 2 62 5 6 3 10 3 10 -2 0 -4 32 -8
70 -8 39 0 70 4 70 8 0 5 4 6 9 3 7 -5 190 -8 251 -5 8 1 40 0 70 0 30 -1 102
-2 160 -2 58 0 110 0 115 0 6 0 33 0 60 0 28 1 76 0 108 -1 31 -2 57 -1 57 2
0 3 29 3 65 0 36 -3 65 -2 65 1 0 4 8 5 18 3 26 -7 222 -10 222 -4 0 3 30 3
66 0 36 -3 67 -4 69 -2 2 2 39 4 82 3 43 0 105 -1 138 0 72 0 85 0 153 -1 29
0 57 2 62 5 6 3 10 3 10 -2 0 -4 32 -8 70 -8 39 0 70 4 70 8 0 5 4 6 9 3 7 -5
190 -8 251 -5 8 1 40 0 70 0 30 -1 102 -2 160 -2 58 0 110 0 115 0 6 0 33 0
60 0 28 1 76 0 108 -1 31 -2 57 -1 57 2 0 3 29 3 65 0 36 -3 65 -2 65 1 0 4 8
5 18 3 26 -7 222 -10 222 -4 0 3 30 3 66 0 36 -3 67 -4 69 -2 2 2 39 4 82 3
43 0 105 -1 138 0 72 0 85 0 153 -1 29 0 57 2 62 5 6 3 10 3 10 -2 0 -4 32 -8
70 -8 39 0 70 4 70 8 0 5 4 6 9 3 7 -5 190 -8 251 -5 8 1 40 0 70 0 30 -1 102
-2 160 -2 58 0 110 0 115 0 6 0 33 0 60 0 28 1 76 0 108 -1 31 -2 57 -1 57 2
0 3 29 3 65 0 36 -3 65 -2 65 1 0 4 8 5 18 3 26 -7 222 -10 222 -4 0 3 30 3
66 0 36 -3 67 -4 69 -2 2 2 39 4 82 3 43 0 105 -1 138 0 72 0 85 0 153 -1 29
0 57 2 62 5 6 3 10 3 10 -2 0 -4 32 -8 70 -8 39 0 70 4 70 8 0 5 4 6 9 3 7 -5
190 -8 251 -5 8 1 40 0 70 0 30 -1 102 -2 160 -2 58 0 110 0 115 0 6 0 33 0
60 0 28 1 76 0 108 -1 31 -2 57 -1 57 2 0 3 29 3 65 0 36 -3 65 -2 65 1 0 4 8
5 18 3 26 -7 222 -10 222 -4 0 3 30 3 66 0 36 -3 67 -4 69 -2 2 2 39 4 82 3
43 0 105 -1 138 0 72 0 85 0 153 -1 29 0 57 2 62 5 6 3 10 3 10 -2 0 -4 32 -8
70 -8 39 0 70 4 70 8 0 5 4 6 9 3 7 -5 190 -8 251 -5 8 1 40 0 70 0 30 -1 102
-2 160 -2 58 0 110 0 115 0 13 -1 112 0 148 1 31 0 97 -27 97 -41 0 -5 9 -9
19 -9 11 0 21 -4 23 -9 2 -5 26 -21 53 -35 28 -15 82 -45 120 -67 39 -22 78
-42 88 -46 9 -3 17 -9 17 -14 0 -5 6 -9 13 -9 7 0 33 -9 57 -21 24 -12 84 -31
134 -44 118 -30 277 -28 376 5 75 25 223 91 228 102 2 5 9 8 15 8 12 0 231
134 261 159 14 12 49 17 142 21 68 3 124 3 124 0 0 -3 52 -5 115 -5 63 0 115
2 115 5 0 3 29 3 65 0 36 -3 65 -2 65 1 0 4 8 5 18 3 26 -7 222 -10 222 -4 0
3 30 3 66 0 36 -3 67 -4 69 -2 2 2 39 4 82 3 43 0 105 -1 138 0 72 0 85 0 153
-1 29 0 57 2 62 5 6 3 10 3 10 -2 0 -4 32 -8 70 -8 39 0 70 4 70 8 0 5 4 6 9
3 7 -5 190 -8 251 -5 8 1 40 0 70 0 30 -1 102 -2 160 -2 58 0 110 0 115 0 6 0
33 0 60 0 28 1 76 0 108 -1 31 -2 57 -1 57 2 0 3 29 3 65 0 36 -3 65 -2 65 1
0 4 8 5 18 3 26 -7 222 -10 222 -4 0 3 30 3 66 0 36 -3 67 -4 69 -2 2 2 39 4
82 3 43 0 105 -1 138 0 72 0 85 0 153 -1 29 0 57 2 62 5 6 3 10 3 10 -2 0 -4
32 -8 70 -8 39 0 70 4 70 8 0 5 4 6 9 3 7 -5 190 -8 251 -5 8 1 40 0 70 0 30
-1 102 -2 160 -2 58 0 110 0 115 0 6 0 33 0 60 0 28 1 76 0 108 -1 31 -2 57
-1 57 2 0 3 29 3 65 0 36 -3 65 -2 65 1 0 4 8 5 18 3 26 -7 222 -10 222 -4 0
3 30 3 66 0 36 -3 67 -4 69 -2 2 2 39 4 82 3 43 0 105 -1 138 0 72 0 85 0 153
-1 29 0 57 2 62 5 6 3 10 3 10 -2 0 -4 32 -8 70 -8 39 0 70 4 70 8 0 5 4 6 9
3 7 -5 190 -8 251 -5 8 1 40 0 70 0 30 -1 102 -2 160 -2 58 0 110 0 115 0 6 0
33 0 60 0 28 1 76 0 108 -1 31 -2 57 -1 57 2 0 3 29 3 65 0 36 -3 65 -2 65 1
0 4 8 5 18 3 26 -7 222 -10 222 -4 0 3 30 3 66 0 36 -3 67 -4 69 -2 2 2 39 4
82 3 43 0 105 -1 138 0 72 0 85 0 153 -1 29 0 57 2 62 5 6 3 10 3 10 -2 0 -4
32 -8 70 -8 39 0 70 4 70 8 0 5 4 6 9 3 7 -5 190 -8 251 -5 8 1 40 0 70 0 30
-1 102 -2 160 -2 58 0 110 0 115 0 6 0 33 0 60 0 28 1 76 0 108 -1 31 -2 57
-1 57 2 0 3 29 3 65 0 36 -3 65 -2 65 1 0 4 8 5 18 3 26 -7 222 -10 222 -4 0
3 30 3 66 0 36 -3 67 -4 69 -2 2 2 39 4 82 3 43 0 105 -1 138 0 72 0 85 0 153
-1 29 0 57 2 62 5 6 3 10 3 10 -2 0 -4 32 -8 70 -8 39 0 70 4 70 8 0 5 4 6 9
3 7 -5 190 -8 251 -5 8 1 40 0 70 0 30 -1 102 -2 160 -2 58 0 110 0 115 0 6 0
33 0 60 0 28 1 76 0 108 -1 31 -2 57 -1 57 2 0 3 29 3 65 0 36 -3 65 -2 65 1
0 4 8 5 18 3 26 -7 222 -10 222 -4 0 3 30 3 66 0 36 -3 67 -4 69 -2 2 2 39 4
82 3 43 0 105 -1 138 0 72 0 85 0 153 -1 29 0 57 2 62 5 6 3 10 3 10 -2 0 -4
32 -8 70 -8 39 0 70 4 70 8 0 5 4 6 9 3 7 -5 190 -8 251 -5 8 1 40 0 70 0 30
-1 102 -2 160 -2 58 0 110 0 115 0 6 0 33 0 60 0 28 1 76 0 108 -1 31 -2 57
-1 57 2 0 3 29 3 65 0 36 -3 65 -2 65 1 0 4 8 5 18 3 26 -7 222 -10 222 -4 0
3 30 3 66 0 36 -3 67 -4 69 -2 2 2 39 4 82 3 43 0 105 -1 138 0 72 0 85 0 153
-1 29 0 57 2 62 5 6 3 10 3 10 -2 0 -4 32 -8 70 -8 39 0 70 4 70 8 0 5 4 6 9
3 7 -5 190 -8 251 -5 8 1 40 0 70 0 30 -1 102 -2 160 -2 58 0 110 0 115 0 6 0
33 0 60 0 28 1 76 0 108 -1 31 -2 57 -1 57 2 0 3 29 3 65 0 36 -3 65 -2 65 1
0 4 8 5 18 3 26 -7 222 -10 222 -4 0 3 30 3 66 0 36 -3 67 -4 69 -1 2 2 53 3
112 2 59 -2 115 -2 123 -2 34 1 109 1 117 0 4 -1 18 -1 31 0 l22 1 0 4800 0
4800 -15520 0 -15520 0 0 -4799z"/>
</g>
</svg>
